<?xml version="1.0" encoding="UTF-8"?>
<svg id="uuid-310f7f24-10e0-4f22-8bb5-1cd10be165de" data-name="Layer 2" xmlns="http://www.w3.org/2000/svg" width="50.9" height="50.5" viewBox="0 0 50.9 50.5">
  <defs>
    <style>
      .uuid-a0ab9701-5e84-4fd5-9259-e79aee70f07f {
        fill: #fff;
      }
    </style>
  </defs>
  <g id="uuid-55896318-f5c9-4747-823d-6ff7a19b6d30" data-name="Capa 1">
    <path class="uuid-a0ab9701-5e84-4fd5-9259-e79aee70f07f" d="M25.2,0c.4,0,.7,0,1.1,0,8.1,4.6,16.3,9.2,24.1,14.1,.3,.3,.3,.6,.3,1,.4,4.9-.3,10.4,0,15.4,0,.5-.6,1-1,1.3-1.7,1.4-5.2,3.1-7.3,4.3-7.8,4.5-16.1,9.7-24,13.7s-1.3,.8-2.2,.6L1.3,42.4c-.7-.5-1.1-.9-1.2-1.8-.3-2.8,.2-6,.2-8.8s0-1.3,0-2c0-1.9-.2-3.7-.2-5.6,.1-.8,1-1.3,1.7-1.7,2.6-1.6,5.7-2.9,8.2-4.7,.4-.6,0-7.1,0-8.5s.2-.7,.6-1.1L25.2,0Zm2.4,5v12.7c.2,.3,.5,.5,.8,.7,.7,.5,4.2,2.7,4.9,2.9s2.2-.7,2.9-1c1.7-.9,3.4-2,5-2.9,1.2-.7,2.6-1.2,3.7-1.9,.4-.3,.2-.7-.1-1L28.1,4.9c-.2-.2-.5,0-.5,.2Zm-4.2,0c-2.1,1.3-4.3,2.5-6.4,3.7-.6,.3-1.6,.4-1,1.3,1.3,.9,4.8,2.1,5.7,3.2s.5,2.7,.4,3.7-.7,2,.7,1.7c2-.5,1.1-2.9,1.1-4.3s.4-9,0-9.3-.4,0-.6,0Zm-9.6,7.8c-.6,.2-.1,1-.1,1.4s-.4,1,0,1.5c.1,.1,.2,.2,.4,.2,.3,0,2.4-1.3,2.4-1.7s-2.3-1.6-2.7-1.4Zm4.9,11.8v-6.9c0-.9-2.5,1-2.7,1.1-3.2,1.9-6.5,3.7-9.8,5.5l-.3,.4c0,.3,.2,.4,.4,.6,1.6,1.2,3.9,2,5.6,3.2,.4,.2,.8,.2,1.2,0,.5-.2,4.8-2.9,5.1-3.2s.4-.4,.4-.6Zm27.9-6.2c0,0-1.3,1-1.7,1.2-8.6,4.9-17.5,9.4-26.2,14.4-.7,.6-.2,1-.2,1.7,0,3.2,0,6.5-.1,9.7l.5,.2,27.9-16.1c.8-.7,.4-1.1,.4-1.9,.1-2.5,.4-6.2,.1-8.6s0-.4-.2-.5c-.2-.1-.4,0-.6,0ZM4,27.8c-.6,.2,0,1.5,0,1.9s-.2,.8-.2,1.2c0,2.9,0,5.9,0,8.9,3,2,6.4,3.5,9.6,5.2,.4,.2,.8,.9,1.4,.6v-11.3L4,27.8Z"/>
  </g>
</svg>