<?xml version="1.0" encoding="UTF-8"?>
<svg id="uuid-8ac508cc-b0ce-42c0-9c0d-6a8629183cf8" data-name="Layer 2" xmlns="http://www.w3.org/2000/svg" width="65.3" height="172.9" viewBox="0 0 65.3 172.9">
  <defs>
    <style>
      .uuid-bf0a4b2f-4702-4666-90e3-782d4322ed6d {
        fill: #fff;
      }
    </style>
  </defs>
  <g id="uuid-3d52df2a-0352-4a47-8916-0b2d7bbeaac0" data-name="Capa 1">
    <g>
      <g>
        <path class="uuid-bf0a4b2f-4702-4666-90e3-782d4322ed6d" d="M47.5,172.9H18.4c-3.2,0-5.8-2.6-5.8-5.8v-60.2c0-3.2,2.6-5.8,5.8-5.8h29.1c3.2,0,5.8,2.6,5.8,5.8v22.9c0,.6-.5,1-1,1s-1-.5-1-1v-22.9c0-2.1-1.7-3.7-3.7-3.7H18.4c-2.1,0-3.7,1.7-3.7,3.7v60.2c0,2.1,1.7,3.7,3.7,3.7h29.1c2.1,0,3.7-1.7,3.7-3.7v-12.5c0-.6,.5-1,1-1s1,.5,1,1v12.5c0,3.2-2.6,5.8-5.8,5.8Z"/>
        <path class="uuid-bf0a4b2f-4702-4666-90e3-782d4322ed6d" d="M39,106.7h-12c-1.9,0-3.5-1.5-3.5-3.5-.6,0-1-.5-1-1s.5-1,1-1h18.9c.6,0,1,.4,1,1,0,.6-.4,1-1,1,0,1.9-1.6,3.4-3.5,3.5Zm-13.5-3.5c0,.8,.7,1.4,1.5,1.4h12c.8,0,1.4-.6,1.5-1.4h-15Z"/>
        <path class="uuid-bf0a4b2f-4702-4666-90e3-782d4322ed6d" d="M39.3,168.1h-12.6c-.6,0-1-.5-1-1s.5-1,1-1h12.6c.6,0,1,.5,1,1s-.5,1-1,1Z"/>
        <path class="uuid-bf0a4b2f-4702-4666-90e3-782d4322ed6d" d="M54.3,157.2c-.5,0-1-.2-1.4-.6l-1.9-1.9-12.9-2.6c-1.2-.2-2.2-.9-2.8-1.9-.6-1-.8-2.2-.5-3.3,.2-.9,1-2.4,3.3-2.9l-6.8-6.8c-.8-.8-1.2-1.9-1.2-3,0,0,0,0,0,0,0-1.1,.6-2.2,1.4-3h0c1.7-1.4,4.2-1.3,5.8,.3l1.3,1.3,.2-.2h0c.8-.7,1.8-1.1,2.9-1.1,.2-.5,.6-.9,.9-1.2,1-.9,2.4-1.3,3.7-1,.2-.3,.4-.5,.6-.7h0c1.7-1.5,4.3-1.4,5.9,.2l6.7,6.7c.6,.7,1.1,1.5,1.4,2.3l1.2,4.1,2.6,2.6h0c.7,.8,.7,2,0,2.8h0l-9,9.1c-.4,.4-.9,.6-1.5,.6h0Zm-15.2-11.3c-2.1,.2-2.4,1.2-2.4,1.5-.2,.5,0,1.1,.3,1.6,.3,.5,.9,.9,1.5,1l13.2,2.7c.2,0,.4,.1,.5,.3l2.1,2.1s0,0,0,0l9-9s0,0,0,0l-2.8-2.8c-.1-.1-.2-.3-.3-.4l-1.3-4.3c-.2-.6-.5-1.1-.9-1.5l-6.7-6.7c-.8-.9-2.2-.9-3.1-.2-.2,.2-.4,.5-.6,.8-.2,.5-.8,.8-1.3,.6,0,0,0,0,0,0-.8-.4-1.7-.3-2.4,.3h0c-.3,.3-.5,.6-.6,1-.1,.5-.6,.9-1.2,.8,0,0,0,0,0,0-.7-.2-1.4,0-2,.4-.2,.2-.4,.5-.5,.7-.2,.5-.9,.7-1.4,.5-.1,0-.2-.1-.3-.2l-2.2-2.2c-.8-.8-2.2-.9-3.1-.2-.4,.4-.7,.9-.7,1.5,0,.6,.2,1.1,.6,1.6l8.3,8.3c.3,.3,.4,.7,.2,1.1-.1,.4-.5,.6-.9,.6h-1.2Z"/>
        <path class="uuid-bf0a4b2f-4702-4666-90e3-782d4322ed6d" d="M50.1,135.1c-.3,0-.5-.1-.7-.3l-3.3-3.3c-.4-.4-.4-1.1,0-1.4,.4-.4,1-.4,1.4,0l3.3,3.3c.4,.4,.4,1,0,1.4-.2,.2-.5,.3-.7,.3h0Z"/>
        <path class="uuid-bf0a4b2f-4702-4666-90e3-782d4322ed6d" d="M46.2,137.6c-.3,0-.5-.1-.7-.3l-3.8-3.8c-.4-.4-.4-1.1,0-1.4,.4-.4,1-.4,1.4,0l3.8,3.8c.4,.4,.4,1,0,1.4-.2,.2-.5,.3-.7,.3h0Z"/>
        <path class="uuid-bf0a4b2f-4702-4666-90e3-782d4322ed6d" d="M42.9,139.7c-.3,0-.5-.1-.7-.3l-4.2-4.2c-.4-.4-.4-1,0-1.4s1-.4,1.4,0l4.2,4.2c.4,.4,.4,1,0,1.4-.2,.2-.5,.3-.7,.3Z"/>
        <path class="uuid-bf0a4b2f-4702-4666-90e3-782d4322ed6d" d="M42.5,148.2c-.3,0-.5-.1-.7-.3l-2.2-2.2c-.4-.4-.4-1,0-1.4,.4-.4,1-.4,1.4,0l2.2,2.3c.4,.4,.4,1,0,1.4-.2,.2-.4,.3-.7,.3h0Z"/>
        <path class="uuid-bf0a4b2f-4702-4666-90e3-782d4322ed6d" d="M31,143.6c-.1,0-.2,0-.3,0-5.3-1.8-8.1-7.5-6.3-12.7s7.5-8.1,12.7-6.3c1.8,.6,3.3,1.7,4.5,3.1,.4,.4,.3,1.1,0,1.4s-1.1,.3-1.4,0h0c-2.8-3.4-7.9-3.9-11.3-1.1-3.4,2.8-3.9,7.9-1,11.3,.9,1.1,2.2,2,3.6,2.5,.5,.2,.8,.7,.6,1.3-.1,.4-.5,.7-1,.7h0Z"/>
        <path class="uuid-bf0a4b2f-4702-4666-90e3-782d4322ed6d" d="M31.9,149.5s0,0-.1,0c-8.5-1.2-14.4-9.1-13.2-17.6,1.2-8.5,9.1-14.4,17.6-13.2,3.8,.5,7.3,2.5,9.7,5.4,.4,.5,.8,1,1.1,1.6,.3,.5,0,1.1-.5,1.4-.4,.2-.9,.1-1.2-.3-.3-.5-.6-.9-1-1.4-4.8-5.7-13.3-6.5-19.1-1.7-5.7,4.8-6.5,13.3-1.7,19.1,2.2,2.6,5.2,4.3,8.5,4.7,.6,0,1,.5,.9,1.1s-.5,1-1.1,.9h0Z"/>
      </g>
      <g id="uuid-c68baf4c-ee8d-4cc6-b5e2-ee9dd2c6c11b" data-name="outline">
        <path class="uuid-bf0a4b2f-4702-4666-90e3-782d4322ed6d" d="M30.4,11.9c-6.6,0-11.9,5.3-11.9,11.9s5.3,11.9,11.9,11.9,11.9-5.3,11.9-11.9c0-6.6-5.3-11.9-11.9-11.9Zm0,21.1c-5.1,0-9.3-4.1-9.3-9.3s4.1-9.3,9.3-9.3,9.3,4.1,9.3,9.3c0,5.1-4.1,9.2-9.3,9.3Z"/>
        <path class="uuid-bf0a4b2f-4702-4666-90e3-782d4322ed6d" d="M30.4,18.7c-2.8,0-5.1,2.3-5.1,5.1,0,2.8,2.3,5.1,5.1,5.1,2.8,0,5.1-2.3,5.1-5.1,0-1.3-.5-2.6-1.5-3.6-.9-1-2.2-1.5-3.6-1.5Zm1.7,6.8c-.9,.9-2.5,.9-3.4,0s-.9-2.5,0-3.4c.9-.9,2.5-.9,3.4,0,.9,.9,.9,2.5,0,3.4h0Z"/>
        <path class="uuid-bf0a4b2f-4702-4666-90e3-782d4322ed6d" d="M30.4,5.3c-10.2,0-18.5,8.3-18.5,18.5,0,6.5,3.4,12.6,9.1,15.9-.7,1.1-1.1,2.3-1.1,3.6v29.7c0,3.5,2.8,6.3,6.3,6.3h8.6c3.5,0,6.3-2.8,6.3-6.3v-29.7c0-1.3-.4-2.5-1.1-3.6,8.8-5.2,11.7-16.6,6.5-25.4-3.3-5.6-9.4-9.1-15.9-9.1Zm7.9,67.7c0,2-1.6,3.6-3.6,3.6h-8.6c-2,0-3.6-1.6-3.6-3.6v-1.7h15.9v1.7Zm0-14.9h-2.6c-.7,0-1.3,.6-1.3,1.3s.6,1.3,1.3,1.3h2.6v2.6h-2.6c-.7,0-1.3,.6-1.3,1.3s.6,1.3,1.3,1.3h2.6v2.6h-15.9v-2.6h2.6c.7,0,1.3-.6,1.3-1.3s-.6-1.3-1.3-1.3h-2.6v-2.6h2.6c.7,0,1.3-.6,1.3-1.3s-.6-1.3-1.3-1.3h-2.6v-14.9c0-.9,.3-1.7,.9-2.4,4.5,1.9,9.6,1.9,14.1,0,.6,.7,.9,1.5,.9,2.4v14.9Zm-7.9-18.5c-8.8,0-15.9-7.1-15.9-15.9s7.1-15.9,15.9-15.9,15.9,7.1,15.9,15.9c0,8.8-7.1,15.9-15.9,15.9Z"/>
        <path class="uuid-bf0a4b2f-4702-4666-90e3-782d4322ed6d" d="M51.4,3.2C45.8,1.1,38.3,0,30.4,0S15,1.1,9.4,3.2C3.3,5.4,0,8.5,0,11.9s.7,3.8,4,6.1l-2.9,.6c-.7,.1-1.2,.8-1,1.6,.1,.6,.7,1.1,1.3,1.1,0,0,.2,0,.3,0l6.6-1.3c.7-.1,1.2-.8,1-1.6h0l-1.3-6.6c-.1-.7-.8-1.2-1.6-1-.7,.1-1.2,.8-1,1.6l.8,4c-2.3-1.4-3.5-2.9-3.5-4.3C2.6,7.5,14,2.6,30.4,2.6s27.8,4.9,27.8,9.3-1.6,3.4-4.6,4.9c-.6,.3-.9,1.1-.6,1.8,.3,.6,1.1,.9,1.8,.6,5-2.6,6-5.4,6-7.3,0-3.4-3.3-6.5-9.4-8.7Z"/>
        <path class="uuid-bf0a4b2f-4702-4666-90e3-782d4322ed6d" d="M30.4,44.9c-2.9,0-5.3,2.4-5.3,5.3s2.4,5.3,5.3,5.3,5.3-2.4,5.3-5.3c0-2.9-2.4-5.3-5.3-5.3Zm0,7.9c-1.5,0-2.6-1.2-2.6-2.6,0-.9,.5-1.8,1.3-2.3v2.3h2.6v-2.3c1.3,.7,1.7,2.3,1,3.6-.5,.8-1.3,1.3-2.3,1.3Z"/>
        <rect class="uuid-bf0a4b2f-4702-4666-90e3-782d4322ed6d" x="29.1" y="58.2" width="2.6" height="2.6"/>
        <rect class="uuid-bf0a4b2f-4702-4666-90e3-782d4322ed6d" x="29.1" y="63.4" width="2.6" height="2.6"/>
      </g>
    </g>
  </g>
</svg>