<?xml version="1.0" encoding="UTF-8"?>
<svg id="uuid-f300c865-8c89-475e-9b4c-3bc020090d28" data-name="Layer 2" xmlns="http://www.w3.org/2000/svg" width="112.2" height="102.9" viewBox="0 0 112.2 102.9">
  <defs>
    <style>
      .uuid-06d50451-0ca7-4607-b6ba-ddbce84df502 {
        fill: #fff;
      }
    </style>
  </defs>
  <g id="uuid-b63c81bc-5973-4778-9d40-c5383986bff2" data-name="Capa 1">
    <g>
      <path class="uuid-06d50451-0ca7-4607-b6ba-ddbce84df502" d="M81.6,102.9c-.8,0-1.6,0-2.4-.3L6.9,83.2c-5-1.4-7.9-6.5-6.6-11.5L9.4,37.7c.3-1.2,1.6-2,2.9-1.7,1.2,.3,2,1.6,1.7,2.9L4.8,73c-.7,2.5,.8,5.1,3.3,5.7l72.3,19.4c2.5,.7,5-.8,5.7-3.3l3.7-13.5c.3-1.2,1.6-2,2.9-1.7,1.2,.3,2,1.6,1.7,2.9l-3.6,13.5c-1.1,4.2-4.9,6.9-9,6.9h0Z"/>
      <path class="uuid-06d50451-0ca7-4607-b6ba-ddbce84df502" d="M102.9,74.8H28.1c-5.2,0-9.4-4.2-9.4-9.4V9.4C18.7,4.2,22.9,0,28.1,0H102.9c5.2,0,9.4,4.2,9.4,9.4v56.1c0,5.2-4.2,9.4-9.4,9.4ZM28.1,4.7c-2.6,0-4.7,2.1-4.7,4.7v56.1c0,2.6,2.1,4.7,4.7,4.7H102.9c2.6,0,4.7-2.1,4.7-4.7V9.4c0-2.6-2.1-4.7-4.7-4.7H28.1Z"/>
      <path class="uuid-06d50451-0ca7-4607-b6ba-ddbce84df502" d="M42.1,32.7c-5.2,0-9.4-4.2-9.4-9.4s4.2-9.4,9.4-9.4,9.4,4.2,9.4,9.4-4.2,9.4-9.4,9.4Zm0-14c-2.6,0-4.7,2.1-4.7,4.7s2.1,4.7,4.7,4.7,4.7-2.1,4.7-4.7-2.1-4.7-4.7-4.7Z"/>
      <path class="uuid-06d50451-0ca7-4607-b6ba-ddbce84df502" d="M21.4,69.8c-.6,0-1.2-.2-1.7-.7-.9-.9-.9-2.4,0-3.3l22.1-22.1c2.6-2.6,7.3-2.6,9.9,0l6.6,6.6,18.2-21.8c1.3-1.6,3.3-2.5,5.3-2.5h0c2,0,4,.9,5.3,2.4l24.5,28.5c.8,1,.7,2.5-.3,3.3-1,.8-2.5,.7-3.3-.3l-24.5-28.5c-.5-.5-1.1-.8-1.8-.8-.5,0-1.3,.3-1.8,.8l-19.8,23.8c-.4,.5-1,.8-1.7,.8-.7,0-1.3-.2-1.8-.7l-8.4-8.4c-.9-.9-2.4-.9-3.3,0l-22.1,22.1c-.5,.5-1.1,.7-1.7,.7h0Z"/>
    </g>
  </g>
</svg>