<?xml version="1.0" encoding="UTF-8"?>
<svg id="uuid-33824402-105c-4b93-824d-c96d32654d4f" data-name="Layer 2" xmlns="http://www.w3.org/2000/svg" width="383.6" height="67.2" viewBox="0 0 383.6 67.2">
  <defs>
    <style>
      .uuid-4a76b256-405b-4250-9c8a-dee5d3b75ad8 {
        fill: #fff;
      }
    </style>
  </defs>
  <g id="uuid-b4e64679-a0f8-4e4d-bcbd-d4634ad5697d" data-name="Capa 1">
    <g>
      <g>
        <g>
          <path class="uuid-4a76b256-405b-4250-9c8a-dee5d3b75ad8" d="M54.5,44.1h-1.3c0,2.6-.5,5-1.5,7.2-1.4,3.3-3.8,6.2-6.7,8.2-3,2-6.5,3.2-10.4,3.2-2.6,0-5-.5-7.2-1.5-3.3-1.4-6.2-3.8-8.2-6.7-2-3-3.2-6.5-3.2-10.4,0-2.6,.5-5,1.5-7.2,1.4-3.3,3.8-6.2,6.7-8.2,3-2,6.5-3.2,10.4-3.2,2.6,0,5,.5,7.2,1.5,3.3,1.4,6.2,3.8,8.2,6.7,2,3,3.2,6.5,3.2,10.4h2.6c0-2.9-.6-5.7-1.7-8.2-1.6-3.8-4.3-7-7.7-9.3-3.4-2.3-7.5-3.6-11.8-3.6-2.9,0-5.7,.6-8.2,1.7-3.8,1.6-7,4.3-9.3,7.7-2.3,3.4-3.6,7.5-3.6,11.8,0,2.9,.6,5.7,1.7,8.2,1.6,3.8,4.3,7,7.7,9.3,3.4,2.3,7.5,3.6,11.8,3.6,2.9,0,5.7-.6,8.2-1.7,3.8-1.6,7-4.3,9.3-7.7,2.3-3.4,3.6-7.5,3.6-11.8h-1.3Z"/>
          <path class="uuid-4a76b256-405b-4250-9c8a-dee5d3b75ad8" d="M54.5,44.1v-.6h-1.9v.6c0,2.5-.5,4.9-1.4,7-1.4,3.2-3.7,6-6.5,7.9-2.9,1.9-6.3,3.1-10.1,3.1-2.5,0-4.9-.5-7-1.4-3.2-1.4-6-3.7-7.9-6.5-1.9-2.9-3.1-6.3-3.1-10.1,0-2.5,.5-4.9,1.4-7,1.4-3.2,3.7-6,6.5-7.9,2.9-1.9,6.3-3.1,10.1-3.1,2.5,0,4.9,.5,7,1.4,3.2,1.4,6,3.7,7.9,6.5,1.9,2.9,3.1,6.3,3.1,10.1v.6h3.8v-.6h0c0-3-.6-5.9-1.7-8.5-1.7-3.9-4.4-7.2-7.9-9.6-3.5-2.3-7.7-3.7-12.2-3.7h0v0h0c-3,0-5.9,.6-8.5,1.7-3.9,1.7-7.2,4.4-9.6,7.9-2.3,3.5-3.7,7.7-3.7,12.2h0c0,3,.6,5.9,1.7,8.5,1.7,3.9,4.4,7.2,7.9,9.6,3.5,2.3,7.7,3.7,12.2,3.7v0h0v0h0v0h0c3,0,5.9-.6,8.5-1.7,3.9-1.7,7.2-4.4,9.6-7.9,2.3-3.5,3.7-7.7,3.7-12.2h0v-.6h-1.9v1.2h1.3v-.6h-.6c0,4.3-1.3,8.2-3.5,11.5-2.2,3.3-5.4,5.9-9.1,7.5-2.5,1-5.2,1.6-8,1.6h0v0h0v0h0v0c-4.3,0-8.2-1.3-11.5-3.5-3.3-2.2-5.9-5.4-7.5-9.1-1-2.5-1.6-5.2-1.6-8h0c0-4.3,1.3-8.2,3.5-11.5,2.2-3.3,5.4-5.9,9.1-7.5,2.5-1,5.2-1.6,8-1.6v0h0v0h0v0h0v0h0c4.3,0,8.2,1.3,11.5,3.5,3.3,2.2,5.9,5.4,7.5,9.1,1,2.5,1.6,5.2,1.6,8h.6v-.6h-2.6v.6h.6c0-4-1.2-7.7-3.3-10.7-2.1-3.1-5-5.5-8.4-7-2.3-1-4.8-1.5-7.5-1.5-4,0-7.7,1.2-10.7,3.3-3.1,2.1-5.5,5-7,8.4-1,2.3-1.5,4.8-1.5,7.5,0,4,1.2,7.7,3.3,10.7,2.1,3.1,5,5.5,8.4,7,2.3,1,4.8,1.5,7.5,1.5,4,0,7.7-1.2,10.7-3.3,3.1-2.1,5.5-5,7-8.4,1-2.3,1.5-4.8,1.5-7.5h-.6v.6h1.3v-.6Z"/>
          <path class="uuid-4a76b256-405b-4250-9c8a-dee5d3b75ad8" d="M54.5,44.1v-1.2h-2.5v1.2c0,2.4-.5,4.7-1.4,6.8-1.3,3.1-3.5,5.8-6.3,7.7-2.8,1.9-6.1,3-9.7,3-2.4,0-4.7-.5-6.8-1.4-3.1-1.3-5.8-3.5-7.7-6.3-1.9-2.8-3-6.1-3-9.7,0-2.4,.5-4.7,1.4-6.8,1.3-3.1,3.5-5.8,6.3-7.7,2.8-1.9,6.1-3,9.7-3,2.4,0,4.7,.5,6.8,1.4,3.1,1.3,5.8,3.5,7.7,6.3,1.9,2.8,3,6.1,3,9.7v1.2h4.9v-1.2h0c0-3.1-.6-6-1.8-8.7-1.7-4-4.5-7.4-8.1-9.8-3.6-2.4-7.9-3.8-12.5-3.8h0v0h0c-3.1,0-6,.6-8.7,1.8-4,1.7-7.4,4.5-9.8,8.1-2.4,3.6-3.8,7.9-3.8,12.5h0c0,3.1,.6,6,1.8,8.7,1.7,4,4.5,7.4,8.1,9.8,3.6,2.4,7.9,3.8,12.5,3.8h0v0c0,0,0,0,0,0v0h0c3.1,0,6-.6,8.7-1.7,4-1.7,7.4-4.5,9.8-8.1,2.4-3.6,3.8-7.9,3.8-12.5h0s0,0,0,0h0v-1.2h-2.5v2.4h1.3v-1.2h-1.2c0,4.1-1.3,8-3.4,11.2-2.2,3.2-5.2,5.7-8.8,7.2-2.4,1-5,1.6-7.8,1.6h0v0c0,0,0,0,0,0h0v0h0v0c-4.1,0-8-1.3-11.2-3.4-3.2-2.2-5.7-5.2-7.2-8.8-1-2.4-1.6-5-1.6-7.8h0c0-4.1,1.3-8,3.4-11.2,2.2-3.2,5.2-5.7,8.8-7.2,2.4-1,5-1.6,7.8-1.6v0h0v0h0v0h0v0h0c4.1,0,8,1.3,11.2,3.4,3.2,2.2,5.7,5.2,7.2,8.8,1,2.4,1.6,5,1.6,7.8h1.2v-1.2h-2.6v1.2h1.2c0-4.1-1.2-7.9-3.4-11.1-2.1-3.2-5.2-5.7-8.7-7.2-2.4-1-5-1.6-7.7-1.6-4.1,0-7.9,1.2-11.1,3.4-3.2,2.1-5.7,5.2-7.2,8.7-1,2.4-1.6,5-1.6,7.7,0,4.1,1.2,7.9,3.4,11.1,2.1,3.2,5.2,5.7,8.7,7.2,2.4,1,5,1.6,7.7,1.6,4.1,0,7.9-1.2,11.1-3.4,3.2-2.1,5.7-5.2,7.2-8.7,1-2.4,1.6-5,1.6-7.7h-1.2v1.2h1.3v-1.2Z"/>
          <path class="uuid-4a76b256-405b-4250-9c8a-dee5d3b75ad8" d="M54.5,44.1h.6v-1.8h-3.6v1.8c0,2.3-.5,4.5-1.3,6.5-1.3,3-3.4,5.6-6.1,7.4-2.7,1.8-5.9,2.9-9.4,2.9-2.3,0-4.5-.5-6.5-1.3-3-1.3-5.6-3.4-7.4-6.1-1.8-2.7-2.9-5.9-2.9-9.4,0-2.3,.5-4.5,1.3-6.5,1.3-3,3.4-5.6,6.1-7.4,2.7-1.8,5.9-2.9,9.4-2.9,2.3,0,4.5,.5,6.5,1.3,3,1.3,5.6,3.4,7.4,6.1,1.8,2.7,2.9,5.9,2.9,9.4v1.8h6.1v-1.8h0c0-3.2-.6-6.2-1.8-8.9-1.7-4.1-4.6-7.6-8.3-10.1-3.7-2.5-8.1-3.9-12.8-3.9v0h0v0h0v0h-.6v1.8h1.3v-1.8h-.6v0h0c-3.2,0-6.2,.6-8.9,1.8-4.1,1.7-7.6,4.6-10.1,8.3-2.5,3.7-3.9,8.1-3.9,12.8h0v.7h1.8v-1.2h-1.8v.6h0c0,3.2,.6,6.2,1.8,8.9,1.7,4.1,4.6,7.6,8.3,10.1,3.7,2.5,8.1,3.9,12.8,3.9h0v0h0v0h.6v-1.8h-1.2l-.2,1.7h.6c0,0,.2,0,.2,0h0v0s0,0,0,0v0h.6v-1.7h-1.2l-.2,1.7h.8v0h0c3.2,0,6.2-.6,8.9-1.8,4.1-1.7,7.6-4.6,10.1-8.3,2.5-3.7,3.9-8.1,3.9-12.8h0v-.6h-1.7v1.2h1.7v-.5h0c0,0,0,0,0,0h0l.2-.6h-1.9v1.2h1.7l.2-2.4h-3.8v3.5h2.5v-2.3l-2.3-.2v.7h0v.6h1.6v-1.2h-1.6v1.2h1.6v-1.2h-1.6v.6c0,4-1.2,7.8-3.3,10.8-2.1,3.1-5.1,5.6-8.5,7-2.3,1-4.9,1.5-7.6,1.5h-.6v1.8h1.2l.2-1.7h-.6c0,0-.2,0-.2,0h-.6v1.7h1.2v-1.7h-1.2v1.7h1.2v-1.7h-.6c-4,0-7.8-1.2-10.8-3.3-3.1-2.1-5.6-5.1-7-8.5-1-2.3-1.5-4.9-1.5-7.6v-.6h-1.7v1.2h1.7v-1.2h-1.7v1.2h1.7v-.6h0v-.7h-1.8v1.2h1.8v-1.2h-1.8v1.2h1.8v-.6c0-4,1.2-7.8,3.3-10.8,2.1-3.1,5.1-5.6,8.5-7,2.3-1,4.9-1.5,7.6-1.5h.6v-1.7h-1.2v1.7h1.2v-1.7h-1.2v1.7h1.3v-1.7h-1.3v1.8h1.3v-1.8h-1.3v1.8h.6c4,0,7.8,1.2,10.8,3.3,3.1,2.1,5.6,5.1,7,8.5,1,2.3,1.5,4.9,1.5,7.6h0v.6h2.4v-2.4h-3.8v2.4h2.4v-.6c0-4.2-1.3-8.1-3.5-11.4-2.2-3.2-5.3-5.8-9-7.4-2.4-1-5.1-1.6-7.9-1.6-4.2,0-8.1,1.3-11.4,3.5-3.2,2.2-5.8,5.3-7.4,9-1,2.4-1.6,5.1-1.6,7.9,0,4.2,1.3,8.1,3.5,11.4,2.2,3.2,5.3,5.8,9,7.4,2.4,1,5.1,1.6,7.9,1.6,4.2,0,8.1-1.3,11.4-3.5,3.2-2.2,5.8-5.3,7.4-9,1-2.4,1.6-5.1,1.6-7.9v-.6h-2.4v2.4h2.5v-1.8h-1.2v.6h-.1v-.6h-.6v.6h1.2v-.6h-.6c0,2.6-.5,5.2-1.5,7.5-1.5,3.4-3.9,6.4-7,8.4-3.1,2.1-6.7,3.3-10.7,3.3-2.6,0-5.2-.5-7.5-1.5-3.4-1.5-6.4-3.9-8.4-7-2.1-3.1-3.3-6.7-3.3-10.7,0-2.7,.5-5.2,1.5-7.5,1.5-3.4,3.9-6.4,7-8.4,3.1-2.1,6.7-3.3,10.7-3.3,2.6,0,5.2,.5,7.5,1.5,3.4,1.5,6.4,3.9,8.4,7,2.1,3.1,3.3,6.7,3.3,10.7h.6v-.6h-.6v-.6h-.6v.6h1.4v.6h.6c0-2.8-.6-5.5-1.6-8-1.6-3.7-4.2-6.8-7.5-9.1-3.3-2.2-7.2-3.5-11.5-3.5h0v.6h.6v-1.1h-1.2v1.2h.6v-.6h0v.6h.6v-1.1h-1.2v1.2h.6v-.6h0v.6h.6v-1.1h-1.1v1.1h.6v-.6h0v.6h.6v-1.1h-1.1v1.1h.6v-.6c-2.8,0-5.5,.6-8,1.6-3.7,1.6-6.8,4.2-9.1,7.5-2.2,3.3-3.5,7.2-3.5,11.5h.6v-.6h-1.1v1.2h1.2v-.6h0v-.5h-1.1v1.2h1.2v-.6h0v-.5h-1.1v1.1h1.1v-.6h0v-.5h-1.1v1.1h1.1v-.6h-.6c0,2.8,.6,5.5,1.6,8,1.6,3.7,4.2,6.8,7.5,9.1,3.3,2.2,7.2,3.5,11.5,3.5v-.6h-.6v1.1h1.2v-1.1h-.6v.6h0v-.6h-.6v1.1h1.2v-1.1h-.6v.6h0v0h0v-.6h-.5v1.1h1v-1.1h-.6v.6h0v0c2.8,0,5.5-.6,8-1.6,3.7-1.6,6.8-4.2,9.1-7.5,2.2-3.3,3.5-7.2,3.5-11.5h-.6v.6h1v-1.2h-1v.6h0v.6h1v-1.2h-1v.6h0v.5h.5v-1.1h.8v1.2h1.1v-.6l-.6-.2c0,0,0,.1,0,.1h.6v-.5h-1.1v1.1h1.1v-.6h-.6c0,4.5-1.4,8.7-3.7,12.2-2.3,3.5-5.7,6.2-9.6,7.9-2.6,1.1-5.5,1.7-8.5,1.7h0v.6h.5v-1.1h-1v1.1h.6v-.6s0,0,0,0h0v.6h.5v-1.1h-1v1.1h.6v-.6h0v0h0v0h0v0c-4.5,0-8.7-1.4-12.2-3.7-3.5-2.3-6.2-5.7-7.9-9.6-1.1-2.6-1.7-5.5-1.7-8.5h-.6v.5h1.2v-1.1h-1.2v.6h.6c0-4.5,1.4-8.7,3.7-12.2,2.3-3.5,5.7-6.2,9.6-7.9,2.6-1.1,5.5-1.7,8.5-1.7v0h0v0h0v-.6h-.6v1.2h1.1v-1.2h-.6v.6h0v0h0v0h0v0h0v0h0c4.5,0,8.7,1.4,12.2,3.7,3.5,2.3,6.2,5.7,7.9,9.6,1.1,2.6,1.7,5.5,1.7,8.5h0v.6h-3.8v-.6c0-3.7-1.1-7.2-3.1-10.1-1.9-2.9-4.7-5.2-7.9-6.5-2.2-.9-4.5-1.4-7-1.4-3.7,0-7.2,1.1-10.1,3.1-2.9,1.9-5.2,4.7-6.5,7.9-.9,2.2-1.4,4.5-1.4,7,0,3.7,1.1,7.2,3.1,10.1,1.9,2.9,4.7,5.2,7.9,6.5,2.2,.9,4.5,1.4,7,1.4,3.7,0,7.2-1.1,10.1-3.1,2.9-1.9,5.2-4.7,6.5-7.9,.9-2.2,1.4-4.5,1.4-7v-.6h1.3v.6h.6Z"/>
          <path class="uuid-4a76b256-405b-4250-9c8a-dee5d3b75ad8" d="M42.8,44.1h-1.3c0,2.6-.5,5-1.5,7.2-1.4,3.3-3.8,6.2-6.7,8.2-3,2-6.5,3.2-10.4,3.2-2.6,0-5-.5-7.2-1.5-3.3-1.4-6.2-3.8-8.2-6.7-2-3-3.2-6.5-3.2-10.4,0-2.6,.5-5,1.5-7.2,1.4-3.3,3.8-6.2,6.7-8.2,3-2,6.5-3.2,10.4-3.2,2.6,0,5,.5,7.2,1.5,3.3,1.4,6.2,3.8,8.2,6.7,2,3,3.2,6.5,3.2,10.4h2.6c0-2.9-.6-5.7-1.7-8.2-1.6-3.8-4.3-7-7.7-9.3-3.4-2.3-7.5-3.6-11.8-3.6-2.9,0-5.7,.6-8.2,1.7-3.8,1.6-7,4.3-9.3,7.7-2.3,3.4-3.6,7.5-3.6,11.8,0,2.9,.6,5.7,1.7,8.2,1.6,3.8,4.3,7,7.7,9.3,3.4,2.3,7.5,3.6,11.8,3.6,2.9,0,5.7-.6,8.2-1.7,3.8-1.6,7-4.3,9.3-7.7,2.3-3.4,3.6-7.5,3.6-11.8h-1.3Z"/>
          <path class="uuid-4a76b256-405b-4250-9c8a-dee5d3b75ad8" d="M42.8,44.1v-.6h-1.9v.6c0,2.5-.5,4.9-1.4,7-1.4,3.2-3.7,6-6.5,7.9-2.9,1.9-6.3,3.1-10.1,3.1-2.5,0-4.9-.5-7-1.4-3.2-1.4-6-3.7-7.9-6.5-1.9-2.9-3.1-6.3-3.1-10.1,0-2.5,.5-4.9,1.4-7,1.4-3.2,3.7-6,6.5-7.9,2.9-1.9,6.3-3.1,10.1-3.1,2.5,0,4.9,.5,7,1.4,3.2,1.4,6,3.7,7.9,6.5,1.9,2.9,3.1,6.3,3.1,10.1v.6h3.8v-.6h0c0-3-.6-5.9-1.7-8.5-1.7-3.9-4.4-7.2-7.9-9.6-3.5-2.3-7.7-3.7-12.2-3.7h0v0h0c-3,0-5.9,.6-8.5,1.7-3.9,1.7-7.2,4.4-9.6,7.9-2.3,3.5-3.7,7.7-3.7,12.2h0c0,3,.6,5.9,1.7,8.5,1.7,3.9,4.4,7.2,7.9,9.6,3.5,2.3,7.7,3.7,12.2,3.7v0h0v0h0v0h0c3,0,5.9-.6,8.5-1.7,3.9-1.7,7.2-4.4,9.6-7.9,2.3-3.5,3.7-7.7,3.7-12.2h0v-.6h-1.9v1.2h1.3v-.6h-.6c0,4.3-1.3,8.2-3.5,11.5-2.2,3.3-5.4,5.9-9.1,7.5-2.5,1-5.2,1.6-8,1.6h0v0h0v0h0v0c-4.3,0-8.2-1.3-11.5-3.5-3.3-2.2-5.9-5.4-7.5-9.1-1-2.5-1.6-5.2-1.6-8h0c0-4.3,1.3-8.2,3.5-11.5,2.2-3.3,5.4-5.9,9.1-7.5,2.5-1,5.2-1.6,8-1.6v0h0v0h0v0h0v0h0c4.3,0,8.2,1.3,11.5,3.5,3.3,2.2,5.9,5.4,7.5,9.1,1,2.5,1.6,5.2,1.6,8h.6v-.6h-2.6v.6h.6c0-4-1.2-7.7-3.3-10.7-2.1-3.1-5-5.5-8.4-7-2.3-1-4.8-1.5-7.5-1.5-4,0-7.7,1.2-10.7,3.3-3.1,2.1-5.5,5-7,8.4-1,2.3-1.5,4.8-1.5,7.5,0,4,1.2,7.7,3.3,10.7,2.1,3.1,5,5.5,8.4,7,2.3,1,4.8,1.5,7.5,1.5,4,0,7.7-1.2,10.7-3.3,3.1-2.1,5.5-5,7-8.4,1-2.3,1.5-4.8,1.5-7.5h-.6v.6h1.3v-.6Z"/>
          <path class="uuid-4a76b256-405b-4250-9c8a-dee5d3b75ad8" d="M42.8,44.1v-1.2h-2.5v1.2c0,2.4-.5,4.7-1.4,6.8-1.3,3.1-3.5,5.8-6.3,7.7-2.8,1.9-6.1,3-9.7,3-2.4,0-4.7-.5-6.8-1.4-3.1-1.3-5.8-3.5-7.7-6.3-1.9-2.8-3-6.1-3-9.7,0-2.4,.5-4.7,1.4-6.8,1.3-3.1,3.5-5.8,6.3-7.7,2.8-1.9,6.1-3,9.7-3,2.4,0,4.7,.5,6.8,1.4,3.1,1.3,5.8,3.5,7.7,6.3,1.9,2.8,3,6.1,3,9.7v1.2h4.9v-1.2h0c0-3.1-.6-6-1.8-8.7-1.7-4-4.5-7.4-8.1-9.8-3.6-2.4-7.9-3.8-12.5-3.8h0v0h0c-3.1,0-6,.6-8.7,1.8-4,1.7-7.4,4.5-9.8,8.1-2.4,3.6-3.8,7.9-3.8,12.5H.6c0,3.1,.6,6,1.8,8.7,1.7,4,4.5,7.4,8.1,9.8,3.6,2.4,7.9,3.8,12.5,3.8h0v0c0,0,0,0,0,0v0h0c3.1,0,6-.6,8.7-1.7,4-1.7,7.4-4.5,9.8-8.1,2.4-3.6,3.8-7.9,3.8-12.5h0s0,0,0,0h0v-1.2h-2.5v2.4h1.3v-1.2h-1.2c0,4.1-1.3,8-3.4,11.2-2.2,3.2-5.2,5.7-8.8,7.2-2.4,1-5,1.6-7.8,1.6h0v0c0,0,0,0,0,0h0v0h0v0c-4.1,0-8-1.3-11.2-3.4-3.2-2.2-5.7-5.2-7.2-8.8-1-2.4-1.6-5-1.6-7.8h0c0-4.1,1.3-8,3.4-11.2,2.2-3.2,5.2-5.7,8.8-7.2,2.4-1,5-1.6,7.8-1.6v0h0v0h0v0h0v0h0c4.1,0,8,1.3,11.2,3.4,3.2,2.2,5.7,5.2,7.2,8.8,1,2.4,1.6,5,1.6,7.8h1.2v-1.2h-2.6v1.2h1.2c0-4.1-1.2-7.9-3.4-11.1-2.1-3.2-5.2-5.7-8.7-7.2-2.4-1-5-1.6-7.7-1.6-4.1,0-7.9,1.2-11.1,3.4-3.2,2.1-5.7,5.2-7.2,8.7-1,2.4-1.6,5-1.6,7.7,0,4.1,1.2,7.9,3.4,11.1,2.1,3.2,5.2,5.7,8.7,7.2,2.4,1,5,1.6,7.7,1.6,4.1,0,7.9-1.2,11.1-3.4,3.2-2.1,5.7-5.2,7.2-8.7,1-2.4,1.6-5,1.6-7.7h-1.2v1.2h1.3v-1.2Z"/>
          <path class="uuid-4a76b256-405b-4250-9c8a-dee5d3b75ad8" d="M42.8,44.1h.6v-1.8h-3.6v1.8c0,2.3-.5,4.5-1.3,6.5-1.3,3-3.4,5.6-6.1,7.4-2.7,1.8-5.9,2.9-9.4,2.9-2.3,0-4.5-.5-6.5-1.3-3-1.3-5.6-3.4-7.4-6.1-1.8-2.7-2.9-5.9-2.9-9.4,0-2.3,.5-4.5,1.3-6.5,1.3-3,3.4-5.6,6.1-7.4,2.7-1.8,5.9-2.9,9.4-2.9,2.3,0,4.5,.5,6.5,1.3,3,1.3,5.6,3.4,7.4,6.1,1.8,2.7,2.9,5.9,2.9,9.4v1.8h6.1v-1.8h0c0-3.2-.6-6.2-1.8-8.9-1.7-4.1-4.6-7.6-8.3-10.1-3.7-2.5-8.1-3.9-12.8-3.9v0h0v0h0v0h-.6v1.8h1.3v-1.8h-.6v0h0c-3.2,0-6.2,.6-8.9,1.8-4.1,1.7-7.6,4.6-10.1,8.3C1.4,35,0,39.4,0,44.1H0v.6H1.8v-1.2H0v.6H0c0,3.2,.6,6.2,1.8,8.9,1.7,4.1,4.6,7.6,8.3,10.1,3.7,2.5,8.1,3.9,12.8,3.9h0v0h0v0h.6v-1.8h-1.2l-.2,1.7h.6c0,0,.2,0,.2,0h0v0s0,0,0,0v0h.6v-1.7h-1.2l-.2,1.7h.8v0h0c3.2,0,6.2-.6,8.9-1.8,4.1-1.7,7.6-4.6,10.1-8.3,2.5-3.7,3.9-8.1,3.9-12.8h0v-.6h-1.7v1.2h1.7v-.5h0c0,0,0,0,0,0h0l.2-.6h-1.9v1.2h1.7l.2-2.4h-3.8v3.5h2.5v-2.3l-2.3-.2v.7h0v.6h1.6v-1.2h-1.6v1.2h1.6v-1.2h-1.6v.6c0,4-1.2,7.8-3.3,10.8-2.1,3.1-5.1,5.6-8.5,7-2.3,1-4.9,1.5-7.6,1.5h-.6v1.8h1.2l.2-1.7h-.6c0,0-.2,0-.2,0h-.6v1.7h1.2v-1.7h-1.2v1.7h1.2v-1.7h-.6c-4,0-7.8-1.2-10.8-3.3-3.1-2.1-5.6-5.1-7-8.5-1-2.3-1.5-4.9-1.5-7.6v-.6H1.8v1.2h1.7v-1.2H1.8v1.2h1.7v-.6h0v-.6H1.8v1.2h1.7v-1.2H1.8v1.2h1.7v-.6c0-4,1.2-7.8,3.3-10.8,2.1-3.1,5.1-5.6,8.5-7,2.3-1,4.9-1.5,7.6-1.5h.6v-1.7h-1.2v1.7h1.2v-1.7h-1.2v1.7h1.3v-1.7h-1.3v1.8h1.3v-1.8h-1.3v1.8h.6c4,0,7.8,1.2,10.8,3.3,3.1,2.1,5.6,5.1,7,8.5,1,2.3,1.5,4.9,1.5,7.6h0v.6h2.4v-2.4h-3.8v2.4h2.4v-.6c0-4.2-1.3-8.1-3.5-11.4-2.2-3.2-5.3-5.8-9-7.4-2.4-1-5.1-1.6-7.9-1.6-4.2,0-8.1,1.3-11.4,3.5-3.2,2.2-5.8,5.3-7.4,9-1,2.4-1.6,5.1-1.6,7.9,0,4.2,1.3,8.1,3.5,11.4,2.2,3.2,5.3,5.8,9,7.4,2.4,1,5.1,1.6,7.9,1.6,4.2,0,8.1-1.3,11.4-3.5,3.2-2.2,5.8-5.3,7.4-9,1-2.4,1.6-5.1,1.6-7.9v-.6h-2.4v2.4h2.5v-1.8h-1.2v.6h-.1v-.6h-.6v.6h1.2v-.6h-.6c0,2.6-.5,5.2-1.5,7.5-1.5,3.4-3.9,6.4-7,8.4-3.1,2.1-6.7,3.3-10.7,3.3-2.6,0-5.2-.5-7.5-1.5-3.4-1.5-6.4-3.9-8.4-7-2.1-3.1-3.3-6.7-3.3-10.7,0-2.7,.5-5.2,1.5-7.5,1.5-3.4,3.9-6.4,7-8.4,3.1-2.1,6.7-3.3,10.7-3.3,2.6,0,5.2,.5,7.5,1.5,3.4,1.5,6.4,3.9,8.4,7,2.1,3.1,3.3,6.7,3.3,10.7h.6v-.6h-.6v-.6h-.6v.6h1.4v.6h.6c0-2.8-.6-5.5-1.6-8-1.6-3.7-4.2-6.8-7.5-9.1-3.3-2.2-7.2-3.5-11.5-3.5h0v.6h.6v-1.1h-1.2v1.2h.6v-.6h0v.6h.6v-1.1h-1.2v1.2h.6v-.6h0v.6h.6v-1.1h-1.1v1.1h.6v-.6h0v.6h.6v-1.1h-1.1v1.1h.6v-.6c-2.8,0-5.5,.6-8,1.6-3.7,1.6-6.8,4.2-9.1,7.5-2.2,3.3-3.5,7.2-3.5,11.5h.6v-.6H1.8v1.2h1.1v-.6h0v-.6H1.8v1.2h1.1v-.6h0v-.5H1.8v1.2h1.1v-.6h0v-.6H1.8v1.2h1.1v-.6h-.6c0,2.8,.6,5.5,1.6,8,1.6,3.7,4.2,6.8,7.5,9.1,3.3,2.2,7.2,3.5,11.5,3.5v-.6h-.6v1.1h1.2v-1.1h-.6v.6h0v-.6h-.6v1.1h1.2v-1.1h-.6v.6h0v0h0v-.6h-.5v1.1h1v-1.1h-.6v.6h0v0c2.8,0,5.5-.6,8-1.6,3.7-1.6,6.8-4.2,9.1-7.5,2.2-3.3,3.5-7.2,3.5-11.5h-.6v.6h1v-1.2h-1v.6h0v.6h1v-1.2h-1v.6h0v.5h.5v-1.1h.8v1.2h1.1v-.6l-.6-.2c0,0,0,.1,0,.1h.6v-.5h-1.1v1.1h1.1v-.6h-.6c0,4.5-1.4,8.7-3.7,12.2-2.3,3.5-5.7,6.2-9.6,7.9-2.6,1.1-5.5,1.7-8.5,1.7h0v.6h.5v-1.1h-1v1.1h.6v-.6s0,0,0,0h0v.6h.5v-1.1h-1v1.1h.6v-.6h0v0h0v0h0v0c-4.5,0-8.7-1.4-12.2-3.7-3.5-2.3-6.2-5.7-7.9-9.6-1.1-2.6-1.7-5.5-1.7-8.5H.6v.6H1.8v-1.2H.6v.6h.6c0-4.5,1.4-8.7,3.7-12.2,2.3-3.5,5.7-6.2,9.6-7.9,2.6-1.1,5.5-1.7,8.5-1.7v0h0v0h0v-.6h-.6v1.2h1.1v-1.2h-.6v.6h0v0h0v0h0v0h0v0h0c4.5,0,8.7,1.4,12.2,3.7,3.5,2.3,6.2,5.7,7.9,9.6,1.1,2.6,1.7,5.5,1.7,8.5h0v.6h-3.8v-.6c0-3.7-1.1-7.2-3.1-10.1-1.9-2.9-4.7-5.2-7.9-6.5-2.2-.9-4.5-1.4-7-1.4-3.7,0-7.2,1.1-10.1,3.1-2.9,1.9-5.2,4.7-6.5,7.9-.9,2.2-1.4,4.5-1.4,7,0,3.7,1.1,7.2,3.1,10.1,1.9,2.9,4.7,5.2,7.9,6.5,2.2,.9,4.5,1.4,7,1.4,3.7,0,7.2-1.1,10.1-3.1,2.9-1.9,5.2-4.7,6.5-7.9,.9-2.2,1.4-4.5,1.4-7v-.6h1.3v.6h.6Z"/>
          <path class="uuid-4a76b256-405b-4250-9c8a-dee5d3b75ad8" d="M64.9,44.1h-1.3c0,2.6-.5,5-1.5,7.2-1.4,3.3-3.8,6.2-6.7,8.2-3,2-6.5,3.2-10.4,3.2-2.6,0-5-.5-7.2-1.5-3.3-1.4-6.2-3.8-8.2-6.7-2-3-3.2-6.5-3.2-10.4,0-2.6,.5-5,1.5-7.2,1.4-3.3,3.8-6.2,6.7-8.2,3-2,6.5-3.2,10.4-3.2,2.6,0,5,.5,7.2,1.5,3.3,1.4,6.2,3.8,8.2,6.7,2,3,3.2,6.5,3.2,10.4h2.6c0-2.9-.6-5.7-1.7-8.2-1.6-3.8-4.3-7-7.7-9.3-3.4-2.3-7.5-3.6-11.8-3.6-2.9,0-5.7,.6-8.2,1.7-3.8,1.6-7,4.3-9.3,7.7-2.3,3.4-3.6,7.5-3.6,11.8,0,2.9,.6,5.7,1.7,8.2,1.6,3.8,4.3,7,7.7,9.3,3.4,2.3,7.5,3.6,11.8,3.6,2.9,0,5.7-.6,8.2-1.7,3.8-1.6,7-4.3,9.3-7.7,2.3-3.4,3.6-7.5,3.6-11.8h-1.3Z"/>
          <path class="uuid-4a76b256-405b-4250-9c8a-dee5d3b75ad8" d="M64.9,44.1v-.6h-1.9v.6c0,2.5-.5,4.9-1.4,7-1.4,3.2-3.7,6-6.5,7.9-2.9,1.9-6.3,3.1-10.1,3.1-2.5,0-4.9-.5-7-1.4-3.2-1.4-6-3.7-7.9-6.5-1.9-2.9-3.1-6.3-3.1-10.1,0-2.5,.5-4.9,1.4-7,1.4-3.2,3.7-6,6.5-7.9,2.9-1.9,6.3-3.1,10.1-3.1,2.5,0,4.9,.5,7,1.4,3.2,1.4,6,3.7,7.9,6.5,1.9,2.9,3.1,6.3,3.1,10.1v.6h3.8v-.6h0c0-3-.6-5.9-1.7-8.5-1.7-3.9-4.4-7.2-7.9-9.6-3.5-2.3-7.7-3.7-12.2-3.7h0v0h0c-3,0-5.9,.6-8.5,1.7-3.9,1.7-7.2,4.4-9.6,7.9-2.3,3.5-3.7,7.7-3.7,12.2h0c0,3,.6,5.9,1.7,8.5,1.7,3.9,4.4,7.2,7.9,9.6,3.5,2.3,7.7,3.7,12.2,3.7v0h0v0h0v0h0c3,0,5.9-.6,8.5-1.7,3.9-1.7,7.2-4.4,9.6-7.9,2.3-3.5,3.7-7.7,3.7-12.2h0v-.6h-1.9v1.2h1.3v-.6h-.6c0,4.3-1.3,8.2-3.5,11.5-2.2,3.3-5.4,5.9-9.1,7.5-2.5,1-5.2,1.6-8,1.6h0v0h0v0h0v0c-4.3,0-8.2-1.3-11.5-3.5-3.3-2.2-5.9-5.4-7.5-9.1-1-2.5-1.6-5.2-1.6-8h0c0-4.3,1.3-8.2,3.5-11.5,2.2-3.3,5.4-5.9,9.1-7.5,2.5-1,5.2-1.6,8-1.6v0h0v0h0v0h0v0h0c4.3,0,8.2,1.3,11.5,3.5,3.3,2.2,5.9,5.4,7.5,9.1,1,2.5,1.6,5.2,1.6,8h.6v-.6h-2.6v.6h.6c0-4-1.2-7.7-3.3-10.7-2.1-3.1-5-5.5-8.4-7-2.3-1-4.8-1.5-7.5-1.5-4,0-7.7,1.2-10.7,3.3-3.1,2.1-5.5,5-7,8.4-1,2.3-1.5,4.8-1.5,7.5,0,4,1.2,7.7,3.3,10.7,2.1,3.1,5,5.5,8.4,7,2.3,1,4.8,1.5,7.5,1.5,4,0,7.7-1.2,10.7-3.3,3.1-2.1,5.5-5,7-8.4,1-2.3,1.5-4.8,1.5-7.5h-.6v.6h1.3v-.6Z"/>
          <path class="uuid-4a76b256-405b-4250-9c8a-dee5d3b75ad8" d="M64.9,44.1v-1.2h-2.5v1.2c0,2.4-.5,4.7-1.4,6.8-1.3,3.1-3.5,5.8-6.3,7.7-2.8,1.9-6.1,3-9.7,3-2.4,0-4.7-.5-6.8-1.4-3.1-1.3-5.8-3.5-7.7-6.3-1.9-2.8-3-6.1-3-9.7,0-2.4,.5-4.7,1.4-6.8,1.3-3.1,3.5-5.8,6.3-7.7,2.8-1.9,6.1-3,9.7-3,2.4,0,4.7,.5,6.8,1.4,3.1,1.3,5.8,3.5,7.7,6.3,1.9,2.8,3,6.1,3,9.7v1.2h4.9v-1.2h0c0-3.1-.6-6-1.8-8.7-1.7-4-4.5-7.4-8.1-9.8-3.6-2.4-7.9-3.8-12.5-3.8h0v0h0c-3.1,0-6,.6-8.7,1.8-4,1.7-7.4,4.5-9.8,8.1-2.4,3.6-3.8,7.9-3.8,12.5h0c0,3.1,.6,6,1.8,8.7,1.7,4,4.5,7.4,8.1,9.8,3.6,2.4,7.9,3.8,12.5,3.8h0v0c0,0,0,0,0,0v0h0c3.1,0,6-.6,8.7-1.7,4-1.7,7.4-4.5,9.8-8.1,2.4-3.6,3.8-7.9,3.8-12.5h0s0,0,0,0h0v-1.2h-2.5v2.4h1.3v-1.2h-1.2c0,4.1-1.3,8-3.4,11.2-2.2,3.2-5.2,5.7-8.8,7.2-2.4,1-5,1.6-7.8,1.6h0v0c0,0,0,0,0,0h0v0h0v0c-4.1,0-8-1.3-11.2-3.4-3.2-2.2-5.7-5.2-7.2-8.8-1-2.4-1.6-5-1.6-7.8h0c0-4.1,1.3-8,3.4-11.2,2.2-3.2,5.2-5.7,8.8-7.2,2.4-1,5-1.6,7.8-1.6v0h0v0h0v0h0v0h0c4.1,0,8,1.3,11.2,3.4,3.2,2.2,5.7,5.2,7.2,8.8,1,2.4,1.6,5,1.6,7.8h1.2v-1.2h-2.6v1.2h1.2c0-4.1-1.2-7.9-3.4-11.1-2.1-3.2-5.2-5.7-8.7-7.2-2.4-1-5-1.6-7.7-1.6-4.1,0-7.9,1.2-11.1,3.4-3.2,2.1-5.7,5.2-7.2,8.7-1,2.4-1.6,5-1.6,7.7,0,4.1,1.2,7.9,3.4,11.1,2.1,3.2,5.2,5.7,8.7,7.2,2.4,1,5,1.6,7.7,1.6,4.1,0,7.9-1.2,11.1-3.4,3.2-2.1,5.7-5.2,7.2-8.7,1-2.4,1.6-5,1.6-7.7h-1.2v1.2h1.3v-1.2Z"/>
          <path class="uuid-4a76b256-405b-4250-9c8a-dee5d3b75ad8" d="M64.9,44.1h.6v-1.8h-3.6v1.8c0,2.3-.5,4.5-1.3,6.5-1.3,3-3.4,5.6-6.1,7.4-2.7,1.8-5.9,2.9-9.4,2.9-2.3,0-4.5-.5-6.5-1.3-3-1.3-5.6-3.4-7.4-6.1-1.8-2.7-2.9-5.9-2.9-9.4,0-2.3,.5-4.5,1.3-6.5,1.3-3,3.4-5.6,6.1-7.4,2.7-1.8,5.9-2.9,9.4-2.9,2.3,0,4.5,.5,6.5,1.3,3,1.3,5.6,3.4,7.4,6.1,1.8,2.7,2.9,5.9,2.9,9.4v1.8h6.1v-1.8h0c0-3.2-.6-6.2-1.8-8.9-1.7-4.1-4.6-7.6-8.3-10.1-3.7-2.5-8.1-3.9-12.8-3.9v0h0v0h0v0h-.6v1.8h1.3v-1.8h-.6v0h0c-3.2,0-6.2,.6-8.9,1.8-4.1,1.7-7.6,4.6-10.1,8.3-2.5,3.7-3.9,8.1-3.9,12.8h0v.7h1.8v-1.2h-1.8v.6h0c0,3.2,.6,6.2,1.8,8.9,1.7,4.1,4.6,7.6,8.3,10.1,3.7,2.5,8.1,3.9,12.8,3.9h0v0h0v0h.6v-1.8h-1.2l-.2,1.7h.6c0,0,.2,0,.2,0h0v0s0,0,0,0v0h.6v-1.7h-1.2l-.2,1.7h.8v0h0c3.2,0,6.2-.6,8.9-1.8,4.1-1.7,7.6-4.6,10.1-8.3,2.5-3.7,3.9-8.1,3.9-12.8h0v-.6h-1.7v1.2h1.7v-.5h0c0,0,0,0,0,0h0l.2-.6h-1.9v1.2h1.7l.2-2.4h-3.8v3.5h2.5v-2.3l-2.3-.2v.7h0v.6h1.6v-1.2h-1.6v1.2h1.6v-1.2h-1.6v.6c0,4-1.2,7.8-3.3,10.8-2.1,3.1-5.1,5.6-8.5,7-2.3,1-4.9,1.5-7.6,1.5h-.6v1.8h1.2l.2-1.7h-.6c0,0-.2,0-.2,0h-.6v1.7h1.2v-1.7h-1.2v1.7h1.2v-1.7h-.6c-4,0-7.8-1.2-10.8-3.3-3.1-2.1-5.6-5.1-7-8.5-1-2.3-1.5-4.9-1.5-7.6v-.6h-1.7v1.2h1.7v-1.2h-1.7v1.2h1.7v-.6h0v-.7h-1.8v1.2h1.8v-1.2h-1.8v1.2h1.8v-.6c0-4,1.2-7.8,3.3-10.8,2.1-3.1,5.1-5.6,8.5-7,2.3-1,4.9-1.5,7.6-1.5h.6v-1.7h-1.2v1.7h1.2v-1.7h-1.2v1.7h1.3v-1.7h-1.3v1.8h1.3v-1.8h-1.3v1.8h.6c4,0,7.8,1.2,10.8,3.3,3.1,2.1,5.6,5.1,7,8.5,1,2.3,1.5,4.9,1.5,7.6h0v.6h2.4v-2.4h-3.8v2.4h2.4v-.6c0-4.2-1.3-8.1-3.5-11.4-2.2-3.2-5.3-5.8-9-7.4-2.4-1-5.1-1.6-7.9-1.6-4.2,0-8.1,1.3-11.4,3.5-3.2,2.2-5.8,5.3-7.4,9-1,2.4-1.6,5.1-1.6,7.9,0,4.2,1.3,8.1,3.5,11.4,2.2,3.2,5.3,5.8,9,7.4,2.4,1,5.1,1.6,7.9,1.6,4.2,0,8.1-1.3,11.4-3.5,3.2-2.2,5.8-5.3,7.4-9,1-2.4,1.6-5.1,1.6-7.9v-.6h-2.4v2.4h2.5v-1.8h-1.2v.6h-.1v-.6h-.6v.6h1.2v-.6h-.6c0,2.6-.5,5.2-1.5,7.5-1.5,3.4-3.9,6.4-7,8.4-3.1,2.1-6.7,3.3-10.7,3.3-2.6,0-5.2-.5-7.5-1.5-3.4-1.5-6.4-3.9-8.4-7-2.1-3.1-3.3-6.7-3.3-10.7,0-2.7,.5-5.2,1.5-7.5,1.5-3.4,3.9-6.4,7-8.4,3.1-2.1,6.7-3.3,10.7-3.3,2.6,0,5.2,.5,7.5,1.5,3.4,1.5,6.4,3.9,8.4,7,2.1,3.1,3.3,6.7,3.3,10.7h.6v-.6h-.6v-.6h-.6v.6h1.4v.6h.6c0-2.8-.6-5.5-1.6-8-1.6-3.7-4.2-6.8-7.5-9.1-3.3-2.2-7.2-3.5-11.5-3.5h0v.6h.6v-1.1h-1.2v1.2h.6v-.6h0v.6h.6v-1.1h-1.2v1.2h.6v-.6h0v.6h.6v-1.1h-1.1v1.1h.6v-.6h0v.6h.6v-1.1h-1.1v1.1h.6v-.6c-2.8,0-5.5,.6-8,1.6-3.7,1.6-6.8,4.2-9.1,7.5-2.2,3.3-3.5,7.2-3.5,11.5h.6v-.6h-1.1v1.2h1.2v-.6h0v-.5h-1.1v1.2h1.2v-.6h0v-.5h-1.1v1.1h1.1v-.6h0v-.5h-1.1v1.1h1.1v-.6h-.6c0,2.8,.6,5.5,1.6,8,1.6,3.7,4.2,6.8,7.5,9.1,3.3,2.2,7.2,3.5,11.5,3.5v-.6h-.6v1.1h1.2v-1.1h-.6v.6h0v-.6h-.6v1.1h1.2v-1.1h-.6v.6h0v0h0v-.6h-.5v1.1h1v-1.1h-.6v.6h0v0c2.8,0,5.5-.6,8-1.6,3.7-1.6,6.8-4.2,9.1-7.5,2.2-3.3,3.5-7.2,3.5-11.5h-.6v.6h1v-1.2h-1v.6h0v.6h1v-1.2h-1v.6h0v.5h.5v-1.1h.8v1.2h1.1v-.6l-.6-.2c0,0,0,.1,0,.1h.6v-.5h-1.1v1.1h1.1v-.6h-.6c0,4.5-1.4,8.7-3.7,12.2-2.3,3.5-5.7,6.2-9.6,7.9-2.6,1.1-5.5,1.7-8.5,1.7h0v.6h.5v-1.1h-1v1.1h.6v-.6s0,0,0,0h0v.6h.5v-1.1h-1v1.1h.6v-.6h0v0h0v0h0v0c-4.5,0-8.7-1.4-12.2-3.7-3.5-2.3-6.2-5.7-7.9-9.6-1.1-2.6-1.7-5.5-1.7-8.5h-.6v.5h1.2v-1.1h-1.2v.6h.6c0-4.5,1.4-8.7,3.7-12.2,2.3-3.5,5.7-6.2,9.6-7.9,2.6-1.1,5.5-1.7,8.5-1.7v0h0v0h0v-.6h-.6v1.2h1.1v-1.2h-.6v.6h0v0h0v0h0v0h0v0h0c4.5,0,8.7,1.4,12.2,3.7,3.5,2.3,6.2,5.7,7.9,9.6,1.1,2.6,1.7,5.5,1.7,8.5h0v.6h-3.8v-.6c0-3.7-1.1-7.2-3.1-10.1-1.9-2.9-4.7-5.2-7.9-6.5-2.2-.9-4.5-1.4-7-1.4-3.7,0-7.2,1.1-10.1,3.1-2.9,1.9-5.2,4.7-6.5,7.9-.9,2.2-1.4,4.5-1.4,7,0,3.7,1.1,7.2,3.1,10.1,1.9,2.9,4.7,5.2,7.9,6.5,2.2,.9,4.5,1.4,7,1.4,3.7,0,7.2-1.1,10.1-3.1,2.9-1.9,5.2-4.7,6.5-7.9,.9-2.2,1.4-4.5,1.4-7v-.6h1.3v.6h.6Z"/>
        </g>
        <g>
          <path class="uuid-4a76b256-405b-4250-9c8a-dee5d3b75ad8" d="M101.6,20.8v8.9h-5.1c-11.7,0-12.5,12.9-12.5,12.9v23.7h-9.4V21.6h9.4v9.4s2.4-10.3,12.5-10.3h5.1Z"/>
          <path class="uuid-4a76b256-405b-4250-9c8a-dee5d3b75ad8" d="M156.3,43.9c0,13.7-10.4,23.2-22.3,23.2s-12.8-3.7-15.9-9.4v8.6h-9.4V0h9.4V30c3.1-5.7,8.4-9.3,15.8-9.3,12,0,22.4,9.4,22.4,23.1Zm-9.4,0c0-8.2-6.5-14.3-14.3-14.3s-14.5,6.7-14.5,14.4,6.2,14.5,14.4,14.5,14.4-6.4,14.4-14.6Z"/>
          <path class="uuid-4a76b256-405b-4250-9c8a-dee5d3b75ad8" d="M164.6,7.2c0-3.4,1.9-5.4,5.6-5.4s5.6,2,5.6,5.4-2,5.4-5.6,5.4-5.6-1.9-5.6-5.4Zm.9,14.5h9.4v44.6h-9.4V21.6Z"/>
          <path class="uuid-4a76b256-405b-4250-9c8a-dee5d3b75ad8" d="M199.2,28.8v24.6c0,3.3,1.5,4.8,4.8,4.8h7.4v8.9h-7.4c-9.4,0-14.1-4.6-14.1-13.7V28.8h-7.9v-7.2h7.9V6.2h9.4v15.5h12.2v7.2h-12.2Z"/>
          <path class="uuid-4a76b256-405b-4250-9c8a-dee5d3b75ad8" d="M263.8,21.6v44.6h-9.4v-8.6c-3,5.6-8.2,9.4-15.9,9.4-11.8,0-22.4-9.4-22.4-23.1s10.4-23.2,22.4-23.2,12.9,3.9,15.9,9.5v-8.7h9.4Zm-9.4,22.4v-.4c0-8-6.6-14.2-14.5-14.2s-14.4,6.3-14.4,14.5,6.5,14.5,14.5,14.5,14.4-6.2,14.4-14.4Z"/>
          <path class="uuid-4a76b256-405b-4250-9c8a-dee5d3b75ad8" d="M303.4,20.8v8.9h-5.1c-11.7,0-12.5,12.9-12.5,12.9v23.7h-9.4V21.6h9.4v9.4s2.4-10.3,12.5-10.3h5.1Z"/>
        </g>
      </g>
      <g>
        <path class="uuid-4a76b256-405b-4250-9c8a-dee5d3b75ad8" d="M316.3,48.6c-1.5-.6-2.8-1.5-3.9-2.6l1.8-2.4c.8,.9,1.9,1.6,3.1,2.1,1.2,.5,2.6,.7,3.9,.7s2.8-.3,4-.9c1.2-.6,2.1-1.4,2.7-2.3,.6-1,.9-2.1,.9-3.3,0-1.8-.7-3.2-2.1-4.3-1.4-1.1-3-1.6-5-1.6s-3,.4-4.1,1.2l-1.4-2.3,10-9.4h-13.1v-3h17.9v3l-8.5,8c1,0,1.8,0,2.3,.1,2.2,.3,4.1,1.2,5.5,2.8,1.4,1.5,2.1,3.4,2.1,5.6s-.5,3.6-1.4,5.1c-1,1.4-2.3,2.6-3.9,3.3-1.7,.8-3.6,1.2-5.6,1.2s-3.6-.3-5.2-.9Z"/>
        <path class="uuid-4a76b256-405b-4250-9c8a-dee5d3b75ad8" d="M342.1,48.2c-1.6-.9-2.8-2.1-3.6-3.6-.8-1.5-1.3-3.2-1.3-5.1s.2-2.6,.7-3.8c.5-1.2,1.1-2.4,2-3.4l10.1-12.3,2.7,2-6.8,8c.7-.2,1.4-.4,2.1-.4,1.9,0,3.6,.4,5.1,1.3,1.5,.9,2.7,2,3.5,3.5,.8,1.5,1.3,3.1,1.3,4.9s-.4,3.6-1.3,5.1c-.9,1.5-2.1,2.8-3.6,3.7s-3.4,1.3-5.4,1.3-3.9-.4-5.5-1.3Zm9-2.6c1-.6,1.8-1.5,2.4-2.5,.6-1.1,.9-2.3,.9-3.6s-.3-2.5-.9-3.5c-.6-1-1.4-1.9-2.4-2.5s-2.2-.9-3.4-.9-2.4,.3-3.4,.9c-1,.6-1.8,1.5-2.4,2.5-.6,1.1-.9,2.2-.9,3.4s.3,2.5,.8,3.6c.6,1.1,1.4,1.9,2.4,2.5s2.2,.9,3.5,.9,2.5-.3,3.5-.9Z"/>
        <path class="uuid-4a76b256-405b-4250-9c8a-dee5d3b75ad8" d="M367.3,47.6c-1.6-1.3-2.9-3-3.8-5.3-.9-2.2-1.4-4.8-1.4-7.6s.5-5.4,1.4-7.6c.9-2.2,2.2-4,3.8-5.3,1.6-1.3,3.5-1.9,5.6-1.9s3.9,.6,5.5,1.9c1.6,1.3,2.9,3,3.8,5.3,.9,2.2,1.4,4.8,1.4,7.6s-.5,5.4-1.4,7.6c-.9,2.2-2.2,4-3.8,5.3-1.6,1.3-3.5,1.9-5.5,1.9s-3.9-.6-5.6-1.9Zm9.3-2.7c1.1-1,1.9-2.4,2.5-4.1,.6-1.8,.9-3.8,.9-6s-.3-4.3-.9-6c-.6-1.8-1.4-3.1-2.5-4.1-1.1-1-2.3-1.5-3.7-1.5s-2.7,.5-3.8,1.5c-1.1,1-1.9,2.4-2.5,4.1-.6,1.8-.9,3.8-.9,6s.3,4.2,.9,6c.6,1.8,1.4,3.1,2.5,4.1,1.1,1,2.4,1.5,3.8,1.5s2.7-.5,3.7-1.5Z"/>
      </g>
    </g>
  </g>
</svg>