<?xml version="1.0" encoding="UTF-8"?>
<svg id="uuid-76f19510-ccc4-496b-b9c9-7eddfdd3f49f" data-name="Layer 2" xmlns="http://www.w3.org/2000/svg" width="171.3" height="23.3" viewBox="0 0 171.3 23.3">
  <defs>
    <style>
      .uuid-ecceb860-b04b-4fc7-b88d-468c20cb9e69 {
        fill: #f78;
      }

      .uuid-878d337a-f885-41f0-80a3-bf411892964d {
        fill: #fff;
      }

      .uuid-90b584ad-2689-44dd-826d-a45ee6c6ea00 {
        fill: #ff3158;
      }

      .uuid-3b7123ac-7eaa-4052-bb9b-717f8cf98149 {
        fill: #c00033;
      }
    </style>
  </defs>
  <g id="uuid-e21f34f7-9b7d-476b-b583-9c3e16743cf1" data-name="Capa 1">
    <g>
      <path class="uuid-878d337a-f885-41f0-80a3-bf411892964d" d="M168.9,5.1c-.3,0-.6,0-.9-.2-.3-.1-.5-.3-.8-.5-.2-.2-.4-.5-.5-.8s-.2-.6-.2-1,0-.7,.2-1,.3-.6,.5-.8c.2-.2,.5-.4,.8-.5,.3-.1,.6-.2,.9-.2s.6,0,.9,.2c.3,.1,.5,.3,.8,.5,.2,.2,.4,.5,.5,.8,.1,.3,.2,.6,.2,1s0,.7-.2,1c-.1,.3-.3,.6-.5,.8-.2,.2-.5,.4-.8,.5-.3,.1-.6,.2-.9,.2Zm0-.5c.3,0,.5,0,.8-.2,.2-.1,.4-.2,.6-.4,.2-.2,.3-.4,.4-.6,0-.2,.1-.5,.1-.7v-.3c0-.2,0-.5-.1-.7,0-.2-.2-.4-.4-.6-.2-.2-.4-.3-.6-.4-.2-.1-.5-.2-.8-.2s-.5,0-.8,.2c-.2,.1-.4,.2-.6,.4-.2,.2-.3,.4-.4,.6,0,.2-.1,.5-.1,.7v.3c0,.2,0,.5,.1,.7,0,.2,.2,.4,.4,.6,.2,.2,.4,.3,.6,.4,.2,.1,.5,.2,.8,.2Zm-.4-.7h-.5V1.4h1.1c.2,0,.4,0,.6,.2,.1,.1,.2,.3,.2,.6s0,.4-.1,.5c0,.1-.2,.2-.3,.3l.6,1h-.5l-.5-1h-.4v1h0Zm.6-1.4c.2,0,.3,0,.3-.3v-.3c0-.2,0-.3-.3-.3h-.6v.8h.6Z"/>
      <path class="uuid-878d337a-f885-41f0-80a3-bf411892964d" d="M29.8,18.8v-7.3l-.3-4.2h.2l1.8,3.7,4,7.4,4-7.4,1.8-3.7h.2l-.3,4.2v7.3h4.4V.8h-4.9l-5.2,9.8L30.4,.8h-5V18.8h4.4Z"/>
      <path class="uuid-878d337a-f885-41f0-80a3-bf411892964d" d="M157.2,14.2c0,3,1.6,4.6,4.7,4.6h2.7v-3.7h-2.9V7.1h3.1V3.5h-3.5V0h-4.1V14.2h0Z"/>
      <path class="uuid-878d337a-f885-41f0-80a3-bf411892964d" d="M155.6,3.6h-.8c-2.5,0-3.7,1.7-4.1,2.8h-.2V3.6h-4.5v15.2h4.5V10.1c0-.9,.3-1.5,.8-1.9,.8-.7,2.4-.9,4.2-.9,0-1.5,0-3.7,0-3.7Z"/>
      <path class="uuid-878d337a-f885-41f0-80a3-bf411892964d" d="M111.4,3.6h-.8c-2.5,0-3.7,1.7-4.1,2.8h-.2V3.6h-4.5v15.2h4.5V10.1c0-.9,.3-1.5,.8-1.9,.8-.7,2.4-.9,4.2-.9,0-1.5,0-3.7,0-3.7Z"/>
      <path class="uuid-878d337a-f885-41f0-80a3-bf411892964d" d="M85.3,11.4c0-5,2.7-8.2,7.4-8.2s7.4,3.7,7.4,8v1.3h-10.2v.2c0,1.7,.9,3,3.5,3s2.9-.8,3.9-1.9l2.3,2.7c-1.4,1.6-3.8,2.6-6.6,2.6-4.9,.2-7.6-2.6-7.6-7.6Zm4.6-1.7v.2h5.5v-.2c0-1.9-.8-3.2-2.7-3.2-1.8,0-2.9,1.2-2.9,3.2Z"/>
      <path class="uuid-878d337a-f885-41f0-80a3-bf411892964d" d="M129.6,11.4c0-5.1,2.8-8.2,7.4-8.2s7.4,3.2,7.4,8.2-2.8,7.7-7.4,7.7-7.4-2.7-7.4-7.7Zm10.3,1.2v-2.7c0-2-1-3.1-2.8-3.1s-2.8,1.2-2.8,3.1v2.7c0,2,1,3.1,2.8,3.1s2.8-1.1,2.8-3.1Z"/>
      <path class="uuid-878d337a-f885-41f0-80a3-bf411892964d" d="M81.2,0h-4V1.9c0,1.1-.3,1.7-1.6,1.7h-1.1v3.7h2.3v7c0,3,1.6,4.6,4.7,4.6h2.7v-3.7h-2.9V7.1h3.1V3.5h-3.1V0Z"/>
      <path class="uuid-878d337a-f885-41f0-80a3-bf411892964d" d="M70.1,0h-4V1.9c0,1.1-.3,1.7-1.6,1.7h-1.1v3.7h2.3v7c0,3,1.6,4.6,4.7,4.6h2.7v-3.7h-2.9V7.1h3.1V3.5h-3.1V0Z"/>
      <path class="uuid-878d337a-f885-41f0-80a3-bf411892964d" d="M121.9,3.2c-2,0-3.8,1.2-4.3,3h-.2V3.6h-4.5V23.3h4.5v-7.2h.2c.4,1.7,2.2,3,4.3,3,4,0,6.1-2.4,6.1-7.7s-2.1-8.1-6.1-8.1Zm1.4,9.5c0,2-1.3,2.7-2.9,2.7s-2.9-.8-2.9-2.3v-4.1c0-1.4,1.3-2.3,2.9-2.3s2.9,1.2,2.9,3.2v2.8Z"/>
      <path class="uuid-878d337a-f885-41f0-80a3-bf411892964d" d="M60.5,18.8c-1.6,0-2.8-1.1-3-2.7h-.2c-.5,2-2.3,3.1-4.6,3.1s-5-1.8-5-4.6,2.6-4.9,6.8-4.9h2.5v-.5c0-1.5-.8-2.5-2.6-2.5s-2.7,.9-3.4,1.8l-2.7-2.2c1.3-1.8,3.1-3,6.4-3s6.8,2,6.8,5.7v6.1h1.5v3.7h-2.5Zm-3.4-4.8v-1.8h-2.2c-1.8,0-2.6,.7-2.6,1.7v.4c0,1.2,.8,1.7,2.1,1.7,1.4,0,2.7-.6,2.7-2Z"/>
      <path class="uuid-90b584ad-2689-44dd-826d-a45ee6c6ea00" d="M16.8,0l-7,2L2.8,0,0,.8V18.8l2.8,.8,7-2,7,2,2.8-.8V.8l-2.8-.8Zm-2.8,13.5l-4.2-1.2-4.2,1.2V6.2l4.2,1.2,4.2-1.2v7.3Z"/>
      <path class="uuid-3b7123ac-7eaa-4052-bb9b-717f8cf98149" d="M9.8,3.5v3.8l-7-2v14.3l-2.8-.8V.8L9.8,3.5Z"/>
      <path class="uuid-3b7123ac-7eaa-4052-bb9b-717f8cf98149" d="M14,15l-4.2-1.2v3.8l7,2V5.4l-2.8,.8V15Z"/>
      <path class="uuid-ecceb860-b04b-4fc7-b88d-468c20cb9e69" d="M16.8,0l2.8,.8L9.8,3.5,0,.8,2.8,0l7,2,7-2Z"/>
      <path class="uuid-ecceb860-b04b-4fc7-b88d-468c20cb9e69" d="M9.8,12.3l4.2,1.2v1.6l-4.2-1.2-4.2,1.2v-1.6l4.2-1.2Z"/>
    </g>
  </g>
</svg>