<?xml version="1.0" encoding="UTF-8"?>
<svg id="uuid-14a21e7e-44cc-44ed-9cf6-41d0cec72b08" data-name="Layer 2" xmlns="http://www.w3.org/2000/svg" width="40.8" height="40.7" viewBox="0 0 40.8 40.7">
  <defs>
    <style>
      .uuid-f8a93a99-a690-4b4a-ae63-c46ce64f5d1e {
        fill: #fff;
      }
    </style>
  </defs>
  <g id="uuid-f6662949-e758-4570-8cc9-4fbca518d154" data-name="Capa 1">
    <path class="uuid-f8a93a99-a690-4b4a-ae63-c46ce64f5d1e" d="M27.4,0c1.2,0,2.1,.4,2.9,1.1,3.2,2.7,6.1,6.5,9.3,9.3,1,1.3,1.5,2.5,.8,4.1-8,8.6-16.6,16.7-24.8,25-2.4,2-4,1.1-6-.7-2.4-2.2-6.5-6.1-8.5-8.5s-1.5-2.8-.6-4.5C8.8,17.2,17.2,8.7,25.9,.4c.4-.2,1-.4,1.4-.4Zm9.9,13.8c.3-.4,.6-.7,.3-1.2s-1.8-1.6-2.3-2.2c-2.4-2.3-4.7-4.7-6.9-7.1-.3-.3-.6-.4-1-.3L3.1,27.3v.5l9.6,9.8c.2,.2,.4,.2,.6,.1,.5-.2,1.8-2.1,2.5-2.4,.3-.4,.2-.6,0-1-.8-1.1-4-2.9-2.1-4.4,1.8-1.5,3.6,2.5,4.6,2.6s1.9-1.5,1.9-1.8,0-.3-.1-.4l-5.5-5.5c-1-1.6,.7-3,2.3-1.9,1.3,.9,3.5,3.5,4.8,4.7s.4,.8,.8,.7,1.5-1.2,1.6-1.3c.3-.3,.3-.6,0-1-.6-1-4-2.8-2.3-4.4,1.8-1.6,3.5,2.3,4.6,2.5s.5,0,.7-.1c.2-.7,1.5-1.1,1.4-1.8s-1.9-1.8-2.3-2.2c-.8-.8-2.9-2.8-3.3-3.5-.5-.8-.4-1.5,.3-2s1.2-.4,1.9,0c1.4,1,3.5,3.4,4.8,4.7s.5,1.1,1.3,.6,1.6-1.4,1.5-1.8c-.7-1.1-4.1-3-2.5-4.6,1.7-1.7,3.3,1.7,4.4,2.3s.6,.2,.9,0c.4-.8,1.4-1.3,1.9-2Z"/>
  </g>
</svg>