<?xml version="1.0" encoding="UTF-8"?>
<svg id="uuid-0a50c698-cf34-4de7-94c5-609733a9c703" data-name="Layer 2" xmlns="http://www.w3.org/2000/svg" width="31.6" height="35.9" viewBox="0 0 31.6 35.9">
  <defs>
    <style>
      .uuid-36cc942f-6ded-4f84-838e-20ca80bde390 {
        fill: #fff;
      }
    </style>
  </defs>
  <g id="uuid-653f53ce-75ff-4ee2-8388-df67fc377127" data-name="Capa 1">
    <g>
      <path class="uuid-36cc942f-6ded-4f84-838e-20ca80bde390" d="M21.8,23.7c3.8-6,3.3-5.2,3.5-5.4,1.4-2,2.1-4.3,2.1-6.7C27.3,5.3,22.2,0,15.8,0S4.2,5.2,4.2,11.6s.8,4.8,2.2,6.8l3.4,5.3c-3.6,.6-9.8,2.2-9.8,5.9s.9,3.2,5,4.7c2.9,1,6.7,1.6,10.8,1.6,7.6,0,15.8-2.1,15.8-6.3s-6.2-5.3-9.8-5.9Zm-13.6-6.5s0,0,0,0c-1.2-1.6-1.8-3.6-1.8-5.6C6.3,6.4,10.5,2.1,15.8,2.1s9.5,4.3,9.5,9.5-.6,3.8-1.7,5.4c-.1,.1,.4-.7-7.7,12.1l-7.6-12Zm7.6,16.6c-8.3,0-13.7-2.4-13.7-4.2s2.8-3.2,8.9-3.9l3.9,6.1c.2,.3,.5,.5,.9,.5s.7-.2,.9-.5l3.9-6.1c6.1,.8,8.9,2.7,8.9,3.9,0,1.8-5.4,4.2-13.7,4.2Z"/>
      <circle class="uuid-36cc942f-6ded-4f84-838e-20ca80bde390" cx="15.7" cy="10.8" r="3.6"/>
    </g>
  </g>
</svg>