<?xml version="1.0" encoding="UTF-8"?>
<svg id="uuid-320f883a-79ac-4782-badb-0d455acd7768" data-name="Layer 2" xmlns="http://www.w3.org/2000/svg" width="45.2" height="48.7" viewBox="0 0 45.2 48.7">
  <defs>
    <style>
      .uuid-afcf1d24-1134-4048-81c7-3f04b99c7d1f {
        fill: #fff;
      }
    </style>
  </defs>
  <g id="uuid-1645a24c-d04b-462b-a152-998fe0adf9d2" data-name="Capa 1">
    <path class="uuid-afcf1d24-1134-4048-81c7-3f04b99c7d1f" d="M21.1,0c1.1-.2,2.1,.1,3.1,.1,6.3,0,12.6-.3,18.9-.2,1.2,0,2.1,.9,2.1,2.1,0,14.9-.3,29.8-.2,44.7,0,1.1-.9,1.6-1.9,1.7-4.1,.4-9.6,0-13.9,0-8.1,0-16.4-.3-24.5-.2-1.8,0-4.7,1-4.7-1.9,0-7.1,.1-14.4,0-21.5s.3-2.4,1.9-2.4c5.4,0,11.1,.7,16.5,.2,1.8-.2,1.2-1.1,1.2-2.2-.1-6.2,0-12.5,0-18.7,0-.8,.7-1.5,1.4-1.7Zm19,3.5c-5.3,.2-10.7,.1-16.1,.1-.2,0-.3,0-.5,.2-.8,.7,.2,18.8-.4,21.3-.7,1.2-1.9,.7-2.9,.7-4.4,0-9.8-.2-14.1,.2-1.3,.1-2.4-.5-2.6,1.2-.5,5.4,.4,11.4,0,16.9,.3,1.4,1.4,.9,2.2,.9,4.4,0,8.9,0,13.3,0,1-.7,.5-1.1,.5-2,0-1.5-.2-5.2,0-6.4s3.2-1.7,3.7,0c.2,2.4-.5,5.3-.1,7.7s.2,.6,.5,.8l17.4-.3,.2-18.8c0-.1-.1-.2-.2-.3-.3-.2-6,0-6.9,0s-1,.3-1.6,.2c-1.9-.3-2.4-2.9-.5-3.6,2.6-.3,5.9,.3,8.4,0,.5,0,.6-.2,.8-.7,0-4.2-.2-8.3-.1-12.5s.4-3.1,.2-4.6-.6-.9-1.4-.9Z"/>
  </g>
</svg>