<?xml version="1.0" encoding="UTF-8"?>
<svg id="uuid-6ff70d7c-f10e-4d2a-b9f5-b602ad125b8e" data-name="Layer 2" xmlns="http://www.w3.org/2000/svg" width="84.3" height="84.1" viewBox="0 0 84.3 84.1">
  <defs>
    <style>
      .uuid-491aa5e0-856a-4b3a-afda-28049c2dab01 {
        fill: #fff;
      }
    </style>
  </defs>
  <g id="uuid-fa17bd4e-4e26-4963-b4c8-7c258a776fa3" data-name="Capa 1">
    <g>
      <path class="uuid-491aa5e0-856a-4b3a-afda-28049c2dab01" d="M62,37.4l-25.8-17.2c-2.7-1.7-6.2-1-8,1.7-.6,.9-.9,2-.9,3.1V59.3c0,3.2,2.6,5.7,5.8,5.7,1.1,0,2.2-.3,3.1-.9l25.8-17.2c2.6-1.8,3.3-5.4,1.5-8-.4-.6-.9-1.1-1.5-1.5h0Zm-2.2,6.2l-25.8,17.2c-.8,.5-1.8,.3-2.4-.5-.2-.3-.3-.6-.3-.9V25c0-.6,.3-1.2,.9-1.5,.6-.3,1.2-.3,1.8,0l25.8,17.2c.8,.5,1,1.6,.5,2.4-.1,.2-.3,.3-.5,.5h0Z"/>
      <path class="uuid-491aa5e0-856a-4b3a-afda-28049c2dab01" d="M42.1,0C18.9,0,0,18.9,0,42.1c2.3,55.9,82,55.9,84.3,0C84.3,18.9,65.4,0,42.1,0Zm0,80.3c-21.1,0-38.1-17.1-38.1-38.1,2.1-50.6,74.2-50.6,76.3,0,0,21.1-17.1,38.1-38.1,38.1Z"/>
    </g>
  </g>
</svg>