<?xml version="1.0" encoding="UTF-8"?>
<svg id="uuid-ad2bcc21-64fe-4bac-9b70-b46b16e11615" data-name="Layer 2" xmlns="http://www.w3.org/2000/svg" width="32.9" height="57" viewBox="0 0 32.9 57">
  <defs>
    <style>
      .uuid-8a947c07-672c-4b82-a669-c3204d5bdbed {
        fill: #fff;
      }
    </style>
  </defs>
  <g id="uuid-52893707-c67b-4d6a-bafc-de2b0cd80de3" data-name="Capa 1">
    <g>
      <path class="uuid-8a947c07-672c-4b82-a669-c3204d5bdbed" d="M32.5,25.3c1,1.2,0,2.4-1.3,2.7-2.3-.5-4.6-.9-6.8-1.5s-2.8-.6-3.6-2.4-.5-2.6-1.6-2.2-.6,2.3-.8,2.9c-.4,1.8-.9,3.6-1.3,5.5s-1,1.4,0,2.6c2.9,2.8,6.3,5.4,8.7,8.6l2.5,12.8c-.3,2.7-3.7,3.8-5.2,1.4s-.8-2.9-1-3.8c-.6-2.7-1-5.4-1.5-8-.3-.9-4.1-4.1-5.1-5s-2.5-2.9-3.3-3.3-.3-.2-.6-.2l-.5,.5-6.2,19.6c-.8,1.3-2.3,1.7-3.7,1.1s-1.6-2.3-1.2-3.8c1.7-7,4.9-14.2,6.8-21.2s1.8-8.9,3.2-13.3c0-.5,0-.8-.6-.7s-3.7,2-4,2.4c-.6,.9-1.2,4.1-1.6,5.4s-.8,3.1-2.6,2.9c-.8,0-1.6-.9-1.5-1.7l2.2-8.2c.2-.8,1-1.2,1.7-1.6,1-.6,6.8-3.6,7.6-3.8,1.3-.2,5.8,.2,7.2,.6s.5,.2,.7,.4c1.4,1,3.2,6.4,4.3,8.1s1.6,1.1,3.1,1.5,5.2,1.2,5.8,1.8Z"/>
      <path class="uuid-8a947c07-672c-4b82-a669-c3204d5bdbed" d="M16.4,0c4-.5,7,2.7,6.2,6.8s-5,4.4-7.6,3.3C9.7,8,10.9,.8,16.4,0Z"/>
    </g>
  </g>
</svg>