<?xml version="1.0" encoding="UTF-8"?>
<svg id="uuid-7ab39265-d304-496d-9ef4-d00552b1b986" data-name="Layer 2" xmlns="http://www.w3.org/2000/svg" width="127.1" height="107.9" viewBox="0 0 127.1 107.9">
  <defs>
    <style>
      .uuid-4376d74b-db32-4718-b79b-0dcafc5bce65 {
        fill: #fff;
      }
    </style>
  </defs>
  <g id="uuid-78d71d8d-2f61-421c-b733-c370bde55d6f" data-name="Capa 1">
    <g>
      <path class="uuid-4376d74b-db32-4718-b79b-0dcafc5bce65" d="M53.9,55.2h1.6l1.2,26.6h-14.3c-1.2,0-2.2,1-2.2,2.2h0v10.3l-8.1,10c-.8,.9-.6,2.3,.3,3.1,.4,.3,.9,.5,1.4,.5h59.6c1.2,0,2.2-1,2.2-2.2,0-.5-.2-1-.5-1.4l-8.1-10v-10.3c0-1.2-1-2.2-2.2-2.2h-14.3l1.2-26.6h1.6c.9,0,1.7-.5,2-1.4,1.4-3.5,.5-22.2,.2-27.8,0-.8-.6-1.6-1.3-1.9l-2.7-1.2c-5-2.2-10.7-2.2-15.7,0l-2.7,1.2c-.8,.3-1.3,1.1-1.3,1.9-.3,5.6-1.3,24.3,.2,27.8,.3,.8,1.1,1.4,2,1.4Zm34.9,48.3H38.4l5-6.2h40.4l5,6.2Zm-6.2-17.3v6.7H44.5v-6.7h38.1ZM56,27.7l1.5-.6c3.9-1.7,8.3-1.7,12.2,0l1.5,.6c.5,7.7,.6,15.5,.3,23.2h-1.9c-1.2,0-2.1,.9-2.2,2.1l-1.3,28.9h-5l-1.3-28.9c0-1.2-1-2.1-2.2-2.1h-1.9c-.3-7.7-.2-15.5,.3-23.2Z"/>
      <path class="uuid-4376d74b-db32-4718-b79b-0dcafc5bce65" d="M63.6,17.8c4.8-.2,8.5-4.1,8.4-8.9,.3-4.6-3.2-8.6-7.9-8.9-4.6-.3-8.6,3.2-8.9,7.9,0,.3,0,.7,0,1-.1,4.8,3.6,8.7,8.4,8.9Zm0-13.4c2.3,.2,4.1,2.2,4,4.5,.3,2.2-1.3,4.2-3.5,4.5-2.2,.3-4.2-1.3-4.5-3.5,0-.3,0-.7,0-1-.1-2.3,1.6-4.3,4-4.5Z"/>
      <path class="uuid-4376d74b-db32-4718-b79b-0dcafc5bce65" d="M102.2,35.1c-1.1,.2-1.8,1.1-1.8,2.2v27.9c-5-.8-10.4-1.3-16-1.7-1.2,0-2.3,.8-2.3,2,0,1.2,.8,2.3,2,2.3,5.7,.4,11.2,1,16.3,1.8v18c0,1.2,1,2.2,2.2,2.2,.1,0,.2,0,.4,0,24.2-4,24.2-9.7,24.2-11.6V27.8c0-9.6-29.9-12.8-42.7-13.7-1.2,0-2.3,.8-2.3,2,0,1.2,.8,2.3,2,2.3h0c27.3,1.9,38.6,7,38.6,9.3,0,1-3.8,4.5-20.5,7.3Zm20.5,43c0,1-3.4,4.2-18,6.9V39.1c9.4-1.7,14.8-3.6,18-5.4v44.5Z"/>
      <path class="uuid-4376d74b-db32-4718-b79b-0dcafc5bce65" d="M24.2,89.8c.1,0,.2,0,.4,0,1.2,0,2.2-1,2.2-2.2v-18c5.1-.8,10.5-1.4,16.3-1.8,1.2,0,2.1-1.1,2-2.3,0-1.2-1.1-2.1-2.3-2h0c-5.6,.4-11,1-16,1.7v-27.9c0-1.1-.8-2-1.8-2.2-16.8-2.8-20.5-6.3-20.5-7.3,0-2.3,11.3-7.4,38.6-9.3,1.2,0,2.1-1.1,2-2.3,0-1.2-1.1-2.1-2.3-2h0C29.9,15,0,18.2,0,27.8v50.4c0,1.9,0,7.6,24.2,11.6ZM4.4,33.7c3.2,1.8,8.6,3.8,18,5.4v45.9c-14.6-2.7-18-5.9-18-6.9V33.7Z"/>
    </g>
  </g>
</svg>